<?xml version="1.0" encoding="utf-8"?>
<!-- Generator: Adobe Illustrator 13.0.0, SVG Export Plug-In  -->
<!DOCTYPE svg PUBLIC "-//W3C//DTD SVG 1.1//EN" "http://www.w3.org/Graphics/SVG/1.1/DTD/svg11.dtd" [
	<!ENTITY ns_flows "http://ns.adobe.com/Flows/1.0/">
]>
<svg version="1.1"
	 xmlns="http://www.w3.org/2000/svg" xmlns:xlink="http://www.w3.org/1999/xlink" xmlns:a="http://ns.adobe.com/AdobeSVGViewerExtensions/3.0/"
	 x="0px" y="0px" width="800px" height="600px" viewBox="-279.736 -182.751 800 600"
	 enable-background="new -279.736 -182.751 800 600" xml:space="preserve">
<defs>
</defs>
<g>
	<g>
		<path d="M61.706,150.649c-3.638-3.632-5.007-1.81-5.815-1.001c-20.931,20.895-39.513,71.318-29.689,66.395
			c35.762-17.926,41.72-12.591,62.651-33.485c0.809-0.809,2.671-2.141-1.074-5.878L61.706,150.649z M174.542,150.364
			c-0.954-3.016,1.034-4.467,1.869-5.368c46.203-49.794,75.56-116.14,53.797-137.863c-21.637-21.607-86.037,8.562-135.901,54.357
			c-0.984,0.904-2.926,2.624-6.408,1.895l-15.534-3.691c-4.311-1.024-10.407,0.696-13.542,3.824L1.819,120.431
			c-3.135,3.128-2.114,6.256,2.266,6.944l41.226,6.468c4.38,0.689,10.53-1.312,13.665-4.446c0,0,2.127-2.127,4.265,0.007
			c11.792,11.77,33.701,33.651,44.937,44.864c2.233,2.233,0.096,4.347,0.096,4.347c-3.138,3.135-5.139,9.271-4.45,13.645
			l6.478,41.16c0.689,4.374,3.817,5.395,6.952,2.26l57.004-56.905c3.135-3.135,4.858-9.218,3.831-13.525L174.542,150.364z
			 M161.779,76.838c-9.662-9.639-9.662-25.268,0-34.904c9.648-9.639,25.301-9.639,34.963,0c9.649,9.636,9.649,25.265,0,34.904
			C187.08,86.48,171.428,86.48,161.779,76.838z"/>
	</g>
</g>
</svg>
